# Blender v2.79 (sub 0) OBJ File: ''
# www.blender.org
v -1.133521 1.307177 1.037777
v -1.151166 -0.204780 1.575848
v -1.023983 -0.260994 1.861121
v -0.634851 1.292903 1.603624
v 1.057196 1.242012 -1.954777
v 1.402072 -0.252160 -1.897301
v -1.000598 -0.272229 -1.902387
v 1.170763 1.287649 1.880221
v 1.452200 1.184280 1.871810
v 1.465093 1.196210 -1.648350
v -1.035205 1.173716 -1.566335
v -0.725174 1.150307 -1.908463
v 1.401284 -0.282077 1.858309
vt 0.587976 0.572015
vt 0.719618 0.421867
vt 0.767386 0.472635
vt 0.634018 0.629795
vt 0.207874 0.819763
vt 0.092083 0.969257
vt 0.092083 0.421867
vt 0.963735 0.091203
vt 0.520439 0.091203
vt 0.520439 0.048808
vt 0.924485 0.048941
vt 0.250133 0.866418
vt 0.250133 0.572015
vt 0.207874 0.629795
vt 0.520439 0.306690
vt 0.963736 0.306690
vt 0.924485 0.347343
vt 0.589357 0.347343
vt 0.767386 0.969257
vt 0.634018 0.819763
vt 0.607509 0.866418
vt 0.463795 0.042130
vt 0.463795 0.337699
vt 0.430841 0.337699
vt 0.022927 0.337699
vt 0.022927 0.042130
vn -0.7037 0.6944 0.1507
vn -0.7737 -0.5760 0.2639
vn -0.4447 -0.5831 0.6798
vn -0.3128 0.7146 0.6257
vn 0.2358 0.6546 -0.7183
vn 0.5759 -0.5802 -0.5759
vn -0.5683 -0.5763 -0.5873
vn 0.0545 0.7428 0.6673
vn 0.6330 0.4798 0.6075
vn 0.7739 0.5575 -0.3004
vn -0.6887 0.6698 -0.2777
vn -0.2809 0.6335 -0.7210
vn 0.5535 -0.5779 0.5998
s 1
f 1/1/1 2/2/2 3/3/3 4/4/4
f 5/5/5 6/6/6 7/7/7
f 5/8/5 8/9/8 9/10/9 10/11/10
f 5/5/5 10/12/10 6/6/6
f 7/7/7 2/2/2 1/1/1 11/13/11
f 7/7/7 11/13/11 12/14/12
f 12/14/12 5/5/5 7/7/7
f 4/15/4 8/9/8 5/8/5 12/16/12
f 12/16/12 11/17/11 1/18/1 4/15/4
f 13/19/13 8/20/8 4/4/4 3/3/3
f 9/21/9 8/20/8 13/19/13
f 13/22/13 3/23/3 2/24/2
f 6/6/6 10/12/10 9/21/9 13/19/13
f 7/25/7 6/26/6 13/22/13
f 2/24/2 7/25/7 13/22/13
